<svg id="Capa_1" data-name="Capa 1" xmlns="http://www.w3.org/2000/svg" viewBox="0 0 800 600"><defs><style>.cls-1{fill:#305978;}.cls-2{fill:#2a4d68;}.cls-3{fill:#25455b;}.cls-4{fill:#3d383d;}.cls-5{fill:#282428;}.cls-6{font-size:161.6px;fill:#1d1d1b;font-family:MaiandraGD-Regular, Maiandra GD;}</style></defs><circle class="cls-1" cx="286.97" cy="321.58" r="276.81"/><path class="cls-2" d="M395.84,324.19l21.32,4.6,15,5.43,15.47,7.94,15.88,14.21,10.87,15.47,2.09,11.28s-.84,33.44-1.68,35.11-4.18,17.55-4.18,17.55l-10.86,17.14L446.41,468.8l-13.79,5.43-20.06,5.86-23.4-1.68s-28.84-5.43-30.1-5.85-15.88-10-15.88-10L329,453.76,315.6,442.89,303.48,424.5l-3.76-19.23,10-27.58,15.88-32.6,38.45-21.73ZM109.55,341.33l-13,33.43,1.68,22.57,10.45,12.12s13.79,10.45,15.46,10.87S138.39,427,140.06,427s22.15.83,22.15.83,14.63-12.12,15.88-12.12,16.3-15.88,16.72-17.13,4.6-19.23,4.6-19.23V359.72l-5.85-14.21L178.51,333l-19.22-5.85-17.14-.42L128.36,330Z"/><polygon class="cls-3" points="376.62 340.49 355.72 355.54 332.31 391.48 334.82 433.69 351.12 451.67 369.09 462.53 386.65 467.96 413.81 469.64 430.11 465.04 450.18 447.49 461.04 432.02 464.8 421.16 464.39 376.44 444.32 359.72 429.7 350.52 406.71 343 376.62 340.49"/><polygon class="cls-3" points="156.36 332.55 178.93 347.18 186.87 355.54 186.45 371 186.45 384.79 174.33 399.42 165.97 406.95 155.11 410.29 135.88 409.04 122.51 406.53 112.48 385.21 111.64 366.4 119.16 347.6 132.54 339.24 156.36 332.55"/><path class="cls-3" d="M217,220.54c1.67,1.26,14.63,1.67,14.63,1.67l21.32-.41,8.35-8.36L258.34,203s-11.7-7.94-13.38-8.36-16.71-3.76-16.71-3.76-7.53-.42-9.2-.42-6.68,5-6.68,5l-5.44,12.95Z"/><polygon class="cls-3" points="370.77 248.96 384.14 247.71 388.32 255.65 389.16 262.75 381.63 269.86 370.77 271.95 368.26 264.84 369.93 256.07 370.77 248.96"/><path class="cls-3" d="M71.52,230.15l16.72-11.28S99.52,204.24,100.36,203s2.92-20.48,2.92-20.48l-7.94-10.87-9.61-.42L74,175.82l-13,10.87-10.45,10-5.43,10.87s-.84,10.44,0,11.7,10,7.52,10,7.52l11.7,2.51Z"/><path class="cls-3" d="M195.23,85.13l18-7.11,15.05-4.59s10.86-1.68,13.37-1.26,11.7,3.76,11.7,3.76l.42,7.11L245,87.64l-13.79,4.18H214l-15-1.68Z"/><polygon class="cls-3" points="331.9 75.1 342.76 78.02 352.8 85.13 359.9 93.49 365.33 101.85 357.81 104.77 346.11 101.85 339 92.23 331.9 83.87 331.9 75.1"/><path class="cls-3" d="M426.77,100.17l1.84.92,7.36,3.68s7.94,4.6,9.19,5.85l7.52,7.53-1.25,7.1-9.61-2.92-10-9.2Z"/><path class="cls-3" d="M371.18,171.22s11.29-10.44,13-10.86,9.61-.42,9.61-.42l3.35,3.76s.83,5-.84,6.69-7.1,5-7.1,5a96,96,0,0,1-9.62,4.18c-3.76,1.26-10,1.26-10,1.26Z"/><path class="cls-3" d="M476.51,262.75s4.18-10.44,5.85-10.86,8.77-1.26,11.7,0,4.18,5.85,4.6,7.1-2.09,7.11-2.09,7.11l-9.2,5L479,269Z"/><path class="cls-3" d="M490.72,341.75s11.28,0,12.53.83a31.29,31.29,0,0,1,4.6,3.35c1.26,1.25-.83,10-.83,10a24.36,24.36,0,0,1-5.44,1.25c-3.34.42-11.28-1.67-11.28-1.67s-4.6-5.43-3.35-8.78A11.15,11.15,0,0,1,490.72,341.75Z"/><path class="cls-3" d="M336.49,535.67s7.11-7.94,10.45-7.94,11.29,2.93,12.54,3.76,2.93,3.35,3.76,5-.83,8.36-1.67,10-1.25,2.92-4.6,4.18-8.77,2.09-10,1.25-8.77-5-8.77-5l-2.51-4.6Z"/><path class="cls-3" d="M203.59,532.75c1.25.41,18,7.52,18,7.52s9.19,5.43,9.61,7.52a49.12,49.12,0,0,1,.42,6.69s-3.34,5.85-6.27,7.1-12.95,2.51-12.95,2.51-12.13-1.67-14.21-2.09-12.54-3.76-12.54-3.76l-7.94-6.69.41-6.68,4.18-5.85,6.69-3.77Z"/><polygon class="cls-4" points="200.42 145.56 141.65 113.67 119.15 83.21 98.33 52.41 88.81 30.2 87.5 14.37 89.19 -3.24 98.8 15.4 118.11 50.72 136 80.2 165.35 108.96 171.38 116.92 200.42 145.56"/><path class="cls-4" d="M221.05,142.26,156.81,89.9,144.86,70,137,51s-3.67-11.86-3.76-12.14-2.08-18.28-2.08-18.28L133,2.88,141.08,25,153.8,53l10.55,19,14.4,19.13L193.83,109l20.81,17.14Z"/><path class="cls-4" d="M243.37,366.79l-6.72,3.86-25.12-11.81,13.32-9-9.55-2.51L200.23,327.2l-5.52-10.8-2.52-9-5-8.79,4.52-1-1.5-10.3-.76-7,2.26-1.26-13.06-2-4.77-7,.76-2.51-4.78-.51-2-3,4-.51L155.68,244l6.32-.75-13-13.09-14.4-5.28-16.77-10.64-22.31-22.6,54.71,8.94-38.42-7.25L97.67,179.08l20.34-.56L86.27,163.36,71,145.37l23.27,5.56L59.62,130.59,39.56,113.72l70,22.51L65,108.73,45.5,89.8,28.36,67.21,115.28,123,66.78,73.89l11.68-.47-14.7-3.67L47.09,38.86V32.45L73.46,61.08l38.71,31.64,14.23,10.93,2.09,1.15,3,7.17,45,43.7-29-22.61.5,10.43L165.32,165l-4.89-2.25,9.66,24.35-3.14-.25,9.12,26.42,4.53-.35,8.8,8.68L243.65,235l-10.86,1.79-46.25-8.06-7.79,4.89L192.32,258l-4,4.9.75,11.18,6.53,7.78s4.78,37.17,4.91,37.55,7.18,5.65,7.18,5.65L229,328.36l-14.92,9,10.87,6,14.31-2.73,12.43,1.88-7.15,6.79-12.85,6.08Z"/><polygon class="cls-5" points="402.06 521.02 401.3 530.32 398.29 536.98 398.54 527.81 390.63 521.28 385.51 519.42 385.54 518.98 388.06 511.77 396.92 514.87 402.06 521.02"/><polygon class="cls-4" points="396.63 563.56 397.38 554.77 391.61 548.12 384.95 547.49 384.82 543.48 376.16 534.55 373.9 535.31 381.68 544.73 382.44 550.25 383.7 552.52 383.06 558.41 374.28 563.43 378.8 557.41 378.55 553.9 375.15 549.63 373.77 543.72 359.96 529.03 346.52 541.84 341.75 542.09 340.12 538.57 332.33 547.61 332.71 555.03 328.56 549.75 328.31 542.34 337.86 534.68 340.12 533.3 345.02 532.17 352.3 525.89 351.92 521.62 344.89 515.22 352.8 508.56 364.6 519.36 375.91 523.38 381.71 527.77 389.85 533.93 394.49 541.59 401.4 547.99 402.27 555.78 396.63 563.56"/><path class="cls-5" d="M516,377l-5.9-6.65,1,7.15-23.48-19.08-21.09-8.17-37.93.13-85.89,84-6,21.84,3.77,24.5,18.46,15.44,24.86,9.79,5.27,6.41-.11.32-2.53,7.21,0,.44-.35,5.59-3.36,2.63-5.31,4.15,1.33-7.16.56-3v-3l-21.85-17.33,1.13,3.38-20,17-3-1.13-8.3,5.4.26,7L323.83,526l.87-4.4,7.79-5.4.75-4.9,9.29-.63L324,492.37l-16.83-25.12-7,6.4,3-24.1L285.4,451.8l-9.3,11.94L281,450.42l-5.78-.63,11.55-20.72-15.32,15.08-9.92-4.53-22.22,11.8h-5l22.85-15.31-23.23-1.51-29,12.93,23.23-13.06-22.72,1.38L156.93,469l30.4-26.75-57,24-30.65.62,5.15-2.38L92.65,464l7.65-6.15-6.65,1.38L89,454.44l-16.59,3.14,16.7-13.81,105.11-34,75-42.94,3.39,1.13,18.46-18.33-44.33,21.6-5.62-3.91-15.35-10.66,12.84-6.09,8.64-4.08-9.15.67-14.84,1.09-9.17-10.8,10.68-7.79L205.41,329s-4.77-9.16-4.9-9.54-4.9-37.55-4.9-37.55l-6.53-7.78-.75-11.18,4-4.9-13.57-24.36,7.79-4.89,34.57,5.05,9.26,1.35L221,232.83l-34.54-8.69-8.28-7.41-4.53-1L167,186.84l3.14.26-9.66-24.36,4.89,2.25L148,143.52l-.51-10.43,29,22.61-45-43.7-3-7.17,16.37,9-1.76-2L196.3,143,171.41,117.8l-10.95-11.07L148.53,90l-6.28-14.57,15.2,12.29L205,126.22l10.67,8.64L198.5,106.73l-25-34.41-6-19.09L168,33.64,257.4,135.73l7.78.63.13-4.52-23.74-30L225.5,72.57l11.55-1L221.6,64.66s-4-17.21-4-17.83-1-15.82-1-15.82L217,8.65l3.51-12.43,16.08,47.34,22.85,47,21.61,34,14.56,8.53L277.11,96.93l9.54-.37-11.55-6s-8.66-29.13-8.54-29.76.26-23.36.26-23.36l7.53-14.19,14.06,47.59,25.36,60.53,16.59,28.76L320.94,136l.62-25.36,18.08,45.71,21.23,38.3,6.53,6.4,1.25-19.34,14.7,32.78L397,249.76l7.41,26.49,27.88-.51L451.15,280l26.75,14.82,14.19,18.83,1.76,13.57,9,13.31,10.8,16.94,2.51,7.29Z"/><text class="cls-6" transform="translate(548.03 569.6)">V </text><text class="cls-6" transform="translate(618.22 568.36)">R</text><text class="cls-6" transform="translate(699.27 570.85)">S</text></svg>